<svg xmlns="http://www.w3.org/2000/svg" viewBox="0 0 512 512">
  <rect width="512" height="512" rx="104" fill="#111318"/>
  <rect x="22" y="22" width="468" height="468" rx="86" fill="none"
        stroke="rgba(221,214,196,0.16)" stroke-width="6" stroke-dasharray="2 18" stroke-linecap="round"/>
  <circle cx="256" cy="256" r="196" fill="none" stroke="rgba(221,214,196,0.30)" stroke-width="5" stroke-dasharray="3 20" stroke-linecap="round"/>
  <path d="M428.00,265.00 L427.07,267.86 L424.39,270.64 L420.28,273.24 L415.23,275.65 L409.83,277.85 L404.72,279.90 L400.48,281.88 L397.58,283.91 L396.34,286.12 L396.84,288.60 L398.96,291.43 L402.39,294.63 L406.62,298.16 L411.07,301.92 L415.13,305.76 L418.23,309.51 L419.93,312.98 L419.92,315.99 L418.16,318.42 L414.75,320.23 L410.04,321.44 L404.49,322.17 L398.68,322.59 L393.18,322.96 L388.53,323.54 L385.15,324.58 L383.29,326.29 L383.00,328.80 L384.14,332.15 L386.41,336.25 L389.34,340.91 L392.42,345.87 L395.09,350.78 L396.88,355.30 L397.42,359.12 L396.49,361.98 L394.05,363.76 L390.26,364.42 L385.40,364.12 L379.90,363.09 L374.24,361.70 L368.90,360.35 L364.30,359.46 L360.76,359.41 L358.46,360.46 L357.41,362.76 L357.46,366.30 L358.35,370.90 L359.70,376.24 L361.09,381.90 L362.12,387.40 L362.42,392.26 L361.76,396.05 L359.98,398.49 L357.12,399.42 L353.30,398.88 L348.78,397.09 L343.87,394.42 L338.91,391.34 L334.25,388.41 L330.15,386.14 L326.80,385.00 L324.29,385.29 L322.58,387.15 L321.54,390.53 L320.96,395.18 L320.59,400.68 L320.17,406.49 L319.44,412.04 L318.23,416.75 L316.42,420.16 L313.99,421.92 L310.98,421.93 L307.51,420.23 L303.76,417.13 L299.92,413.07 L296.16,408.62 L292.63,404.39 L289.43,400.96 L286.60,398.84 L284.12,398.34 L281.91,399.58 L279.88,402.48 L277.90,406.72 L275.85,411.83 L273.65,417.23 L271.24,422.28 L268.64,426.39 L265.86,429.07 L263.00,430.00 L260.14,429.07 L257.36,426.39 L254.76,422.28 L252.35,417.23 L250.15,411.83 L248.10,406.72 L246.12,402.48 L244.09,399.58 L241.88,398.34 L239.40,398.84 L236.57,400.96 L233.37,404.39 L229.84,408.62 L226.08,413.07 L222.24,417.13 L218.49,420.23 L215.02,421.93 L212.01,421.92 L209.58,420.16 L207.77,416.75 L206.56,412.04 L205.83,406.49 L205.41,400.68 L205.04,395.18 L204.46,390.53 L203.42,387.15 L201.71,385.29 L199.20,385.00 L195.85,386.14 L191.75,388.41 L187.09,391.34 L182.13,394.42 L177.22,397.09 L172.70,398.88 L168.88,399.42 L166.02,398.49 L164.24,396.05 L163.58,392.26 L163.88,387.40 L164.91,381.90 L166.30,376.24 L167.65,370.90 L168.54,366.30 L168.59,362.76 L167.54,360.46 L165.24,359.41 L161.70,359.46 L157.10,360.35 L151.76,361.70 L146.10,363.09 L140.60,364.12 L135.74,364.42 L131.95,363.76 L129.51,361.98 L128.58,359.12 L129.12,355.30 L130.91,350.78 L133.58,345.87 L136.66,340.91 L139.59,336.25 L141.86,332.15 L143.00,328.80 L142.71,326.29 L140.85,324.58 L137.47,323.54 L132.82,322.96 L127.32,322.59 L121.51,322.17 L115.96,321.44 L111.25,320.23 L107.84,318.42 L106.08,315.99 L106.07,312.98 L107.77,309.51 L110.87,305.76 L114.93,301.92 L119.38,298.16 L123.61,294.63 L127.04,291.43 L129.16,288.60 L129.66,286.12 L128.42,283.91 L125.52,281.88 L121.28,279.90 L116.17,277.85 L110.77,275.65 L105.72,273.24 L101.61,270.64 L98.93,267.86 L98.00,265.00 L98.93,262.14 L101.61,259.36 L105.72,256.76 L110.77,254.35 L116.17,252.15 L121.28,250.10 L125.52,248.12 L128.42,246.09 L129.66,243.88 L129.16,241.40 L127.04,238.57 L123.61,235.37 L119.38,231.84 L114.93,228.08 L110.87,224.24 L107.77,220.49 L106.07,217.02 L106.08,214.01 L107.84,211.58 L111.25,209.77 L115.96,208.56 L121.51,207.83 L127.32,207.41 L132.82,207.04 L137.47,206.46 L140.85,205.42 L142.71,203.71 L143.00,201.20 L141.86,197.85 L139.59,193.75 L136.66,189.09 L133.58,184.13 L130.91,179.22 L129.12,174.70 L128.58,170.88 L129.51,168.02 L131.95,166.24 L135.74,165.58 L140.60,165.88 L146.10,166.91 L151.76,168.30 L157.10,169.65 L161.70,170.54 L165.24,170.59 L167.54,169.54 L168.59,167.24 L168.54,163.70 L167.65,159.10 L166.30,153.76 L164.91,148.10 L163.88,142.60 L163.58,137.74 L164.24,133.95 L166.02,131.51 L168.88,130.58 L172.70,131.12 L177.22,132.91 L182.13,135.58 L187.09,138.66 L191.75,141.59 L195.85,143.86 L199.20,145.00 L201.71,144.71 L203.42,142.85 L204.46,139.47 L205.04,134.82 L205.41,129.32 L205.83,123.51 L206.56,117.96 L207.77,113.25 L209.58,109.84 L212.01,108.08 L215.02,108.07 L218.49,109.77 L222.24,112.87 L226.08,116.93 L229.84,121.38 L233.37,125.61 L236.57,129.04 L239.40,131.16 L241.88,131.66 L244.09,130.42 L246.12,127.52 L248.10,123.28 L250.15,118.17 L252.35,112.77 L254.76,107.72 L257.36,103.61 L260.14,100.93 L263.00,100.00 L265.86,100.93 L268.64,103.61 L271.24,107.72 L273.65,112.77 L275.85,118.17 L277.90,123.28 L279.88,127.52 L281.91,130.42 L284.12,131.66 L286.60,131.16 L289.43,129.04 L292.63,125.61 L296.16,121.38 L299.92,116.93 L303.76,112.87 L307.51,109.77 L310.98,108.07 L313.99,108.08 L316.42,109.84 L318.23,113.25 L319.44,117.96 L320.17,123.51 L320.59,129.32 L320.96,134.82 L321.54,139.47 L322.58,142.85 L324.29,144.71 L326.80,145.00 L330.15,143.86 L334.25,141.59 L338.91,138.66 L343.87,135.58 L348.78,132.91 L353.30,131.12 L357.12,130.58 L359.98,131.51 L361.76,133.95 L362.42,137.74 L362.12,142.60 L361.09,148.10 L359.70,153.76 L358.35,159.10 L357.46,163.70 L357.41,167.24 L358.46,169.54 L360.76,170.59 L364.30,170.54 L368.90,169.65 L374.24,168.30 L379.90,166.91 L385.40,165.88 L390.26,165.58 L394.05,166.24 L396.49,168.02 L397.42,170.88 L396.88,174.70 L395.09,179.22 L392.42,184.13 L389.34,189.09 L386.41,193.75 L384.14,197.85 L383.00,201.20 L383.29,203.71 L385.15,205.42 L388.53,206.46 L393.18,207.04 L398.68,207.41 L404.49,207.83 L410.04,208.56 L414.75,209.77 L418.16,211.58 L419.92,214.01 L419.93,217.02 L418.23,220.49 L415.13,224.24 L411.07,228.08 L406.62,231.84 L402.39,235.37 L398.96,238.57 L396.84,241.40 L396.34,243.88 L397.58,246.09 L400.48,248.12 L404.72,250.10 L409.83,252.15 L415.23,254.35 L420.28,256.76 L424.39,259.36 L427.07,262.14 Z" fill="#a83838"/>
  <path d="M421.00,256.00 L420.07,258.86 L417.39,261.64 L413.28,264.24 L408.23,266.65 L402.83,268.85 L397.72,270.90 L393.48,272.88 L390.58,274.91 L389.34,277.12 L389.84,279.60 L391.96,282.43 L395.39,285.63 L399.62,289.16 L404.07,292.92 L408.13,296.76 L411.23,300.51 L412.93,303.98 L412.92,306.99 L411.16,309.42 L407.75,311.23 L403.04,312.44 L397.49,313.17 L391.68,313.59 L386.18,313.96 L381.53,314.54 L378.15,315.58 L376.29,317.29 L376.00,319.80 L377.14,323.15 L379.41,327.25 L382.34,331.91 L385.42,336.87 L388.09,341.78 L389.88,346.30 L390.42,350.12 L389.49,352.98 L387.05,354.76 L383.26,355.42 L378.40,355.12 L372.90,354.09 L367.24,352.70 L361.90,351.35 L357.30,350.46 L353.76,350.41 L351.46,351.46 L350.41,353.76 L350.46,357.30 L351.35,361.90 L352.70,367.24 L354.09,372.90 L355.12,378.40 L355.42,383.26 L354.76,387.05 L352.98,389.49 L350.12,390.42 L346.30,389.88 L341.78,388.09 L336.87,385.42 L331.91,382.34 L327.25,379.41 L323.15,377.14 L319.80,376.00 L317.29,376.29 L315.58,378.15 L314.54,381.53 L313.96,386.18 L313.59,391.68 L313.17,397.49 L312.44,403.04 L311.23,407.75 L309.42,411.16 L306.99,412.92 L303.98,412.93 L300.51,411.23 L296.76,408.13 L292.92,404.07 L289.16,399.62 L285.63,395.39 L282.43,391.96 L279.60,389.84 L277.12,389.34 L274.91,390.58 L272.88,393.48 L270.90,397.72 L268.85,402.83 L266.65,408.23 L264.24,413.28 L261.64,417.39 L258.86,420.07 L256.00,421.00 L253.14,420.07 L250.36,417.39 L247.76,413.28 L245.35,408.23 L243.15,402.83 L241.10,397.72 L239.12,393.48 L237.09,390.58 L234.88,389.34 L232.40,389.84 L229.57,391.96 L226.37,395.39 L222.84,399.62 L219.08,404.07 L215.24,408.13 L211.49,411.23 L208.02,412.93 L205.01,412.92 L202.58,411.16 L200.77,407.75 L199.56,403.04 L198.83,397.49 L198.41,391.68 L198.04,386.18 L197.46,381.53 L196.42,378.15 L194.71,376.29 L192.20,376.00 L188.85,377.14 L184.75,379.41 L180.09,382.34 L175.13,385.42 L170.22,388.09 L165.70,389.88 L161.88,390.42 L159.02,389.49 L157.24,387.05 L156.58,383.26 L156.88,378.40 L157.91,372.90 L159.30,367.24 L160.65,361.90 L161.54,357.30 L161.59,353.76 L160.54,351.46 L158.24,350.41 L154.70,350.46 L150.10,351.35 L144.76,352.70 L139.10,354.09 L133.60,355.12 L128.74,355.42 L124.95,354.76 L122.51,352.98 L121.58,350.12 L122.12,346.30 L123.91,341.78 L126.58,336.87 L129.66,331.91 L132.59,327.25 L134.86,323.15 L136.00,319.80 L135.71,317.29 L133.85,315.58 L130.47,314.54 L125.82,313.96 L120.32,313.59 L114.51,313.17 L108.96,312.44 L104.25,311.23 L100.84,309.42 L99.08,306.99 L99.07,303.98 L100.77,300.51 L103.87,296.76 L107.93,292.92 L112.38,289.16 L116.61,285.63 L120.04,282.43 L122.16,279.60 L122.66,277.12 L121.42,274.91 L118.52,272.88 L114.28,270.90 L109.17,268.85 L103.77,266.65 L98.72,264.24 L94.61,261.64 L91.93,258.86 L91.00,256.00 L91.93,253.14 L94.61,250.36 L98.72,247.76 L103.77,245.35 L109.17,243.15 L114.28,241.10 L118.52,239.12 L121.42,237.09 L122.66,234.88 L122.16,232.40 L120.04,229.57 L116.61,226.37 L112.38,222.84 L107.93,219.08 L103.87,215.24 L100.77,211.49 L99.07,208.02 L99.08,205.01 L100.84,202.58 L104.25,200.77 L108.96,199.56 L114.51,198.83 L120.32,198.41 L125.82,198.04 L130.47,197.46 L133.85,196.42 L135.71,194.71 L136.00,192.20 L134.86,188.85 L132.59,184.75 L129.66,180.09 L126.58,175.13 L123.91,170.22 L122.12,165.70 L121.58,161.88 L122.51,159.02 L124.95,157.24 L128.74,156.58 L133.60,156.88 L139.10,157.91 L144.76,159.30 L150.10,160.65 L154.70,161.54 L158.24,161.59 L160.54,160.54 L161.59,158.24 L161.54,154.70 L160.65,150.10 L159.30,144.76 L157.91,139.10 L156.88,133.60 L156.58,128.74 L157.24,124.95 L159.02,122.51 L161.88,121.58 L165.70,122.12 L170.22,123.91 L175.13,126.58 L180.09,129.66 L184.75,132.59 L188.85,134.86 L192.20,136.00 L194.71,135.71 L196.42,133.85 L197.46,130.47 L198.04,125.82 L198.41,120.32 L198.83,114.51 L199.56,108.96 L200.77,104.25 L202.58,100.84 L205.01,99.08 L208.02,99.07 L211.49,100.77 L215.24,103.87 L219.08,107.93 L222.84,112.38 L226.37,116.61 L229.57,120.04 L232.40,122.16 L234.88,122.66 L237.09,121.42 L239.12,118.52 L241.10,114.28 L243.15,109.17 L245.35,103.77 L247.76,98.72 L250.36,94.61 L253.14,91.93 L256.00,91.00 L258.86,91.93 L261.64,94.61 L264.24,98.72 L266.65,103.77 L268.85,109.17 L270.90,114.28 L272.88,118.52 L274.91,121.42 L277.12,122.66 L279.60,122.16 L282.43,120.04 L285.63,116.61 L289.16,112.38 L292.92,107.93 L296.76,103.87 L300.51,100.77 L303.98,99.07 L306.99,99.08 L309.42,100.84 L311.23,104.25 L312.44,108.96 L313.17,114.51 L313.59,120.32 L313.96,125.82 L314.54,130.47 L315.58,133.85 L317.29,135.71 L319.80,136.00 L323.15,134.86 L327.25,132.59 L331.91,129.66 L336.87,126.58 L341.78,123.91 L346.30,122.12 L350.12,121.58 L352.98,122.51 L354.76,124.95 L355.42,128.74 L355.12,133.60 L354.09,139.10 L352.70,144.76 L351.35,150.10 L350.46,154.70 L350.41,158.24 L351.46,160.54 L353.76,161.59 L357.30,161.54 L361.90,160.65 L367.24,159.30 L372.90,157.91 L378.40,156.88 L383.26,156.58 L387.05,157.24 L389.49,159.02 L390.42,161.88 L389.88,165.70 L388.09,170.22 L385.42,175.13 L382.34,180.09 L379.41,184.75 L377.14,188.85 L376.00,192.20 L376.29,194.71 L378.15,196.42 L381.53,197.46 L386.18,198.04 L391.68,198.41 L397.49,198.83 L403.04,199.56 L407.75,200.77 L411.16,202.58 L412.92,205.01 L412.93,208.02 L411.23,211.49 L408.13,215.24 L404.07,219.08 L399.62,222.84 L395.39,226.37 L391.96,229.57 L389.84,232.40 L389.34,234.88 L390.58,237.09 L393.48,239.12 L397.72,241.10 L402.83,243.15 L408.23,245.35 L413.28,247.76 L417.39,250.36 L420.07,253.14 Z" fill="#e15555"/>
  <circle cx="256" cy="256" r="112.0" fill="none" stroke="#ddd6c4" stroke-width="10.0"/>
  <g fill="#ddd6c4"><circle cx="256" cy="248.0" r="36.0"/><path d="M243.0,264.0 L235.0,344.0 A21.0,13.02 0 0 0 277.0,344.0 L269.0,264.0 Z"/></g>
</svg>
