<svg xmlns="http://www.w3.org/2000/svg" viewBox="0 0 512 512">
  <rect width="512" height="512" fill="#111318"/>
  <path d="M383.28,262.66 L382.59,264.78 L380.61,266.83 L377.57,268.76 L373.83,270.54 L369.84,272.17 L366.05,273.68 L362.91,275.15 L360.77,276.66 L359.85,278.29 L360.22,280.12 L361.79,282.22 L364.33,284.58 L367.46,287.20 L370.75,289.98 L373.76,292.83 L376.05,295.60 L377.30,298.16 L377.30,300.39 L375.99,302.19 L373.48,303.53 L369.99,304.43 L365.88,304.96 L361.58,305.28 L357.51,305.55 L354.07,305.98 L351.57,306.75 L350.19,308.01 L349.98,309.87 L350.83,312.35 L352.50,315.38 L354.67,318.84 L356.95,322.50 L358.93,326.14 L360.25,329.49 L360.65,332.31 L359.96,334.43 L358.16,335.74 L355.35,336.23 L351.76,336.01 L347.69,335.25 L343.50,334.22 L339.54,333.22 L336.14,332.56 L333.52,332.52 L331.82,333.30 L331.04,335.00 L331.08,337.62 L331.74,341.02 L332.74,344.98 L333.77,349.17 L334.53,353.24 L334.75,356.83 L334.26,359.64 L332.95,361.44 L330.83,362.13 L328.01,361.73 L324.66,360.41 L321.02,358.43 L317.36,356.15 L313.91,353.98 L310.87,352.31 L308.39,351.46 L306.53,351.67 L305.27,353.05 L304.50,355.55 L304.07,358.99 L303.80,363.06 L303.48,367.36 L302.95,371.47 L302.05,374.96 L300.71,377.47 L298.91,378.78 L296.68,378.78 L294.12,377.53 L291.35,375.24 L288.50,372.23 L285.72,368.94 L283.10,365.81 L280.74,363.27 L278.64,361.70 L276.81,361.33 L275.18,362.25 L273.67,364.39 L272.20,367.53 L270.69,371.32 L269.06,375.31 L267.28,379.05 L265.35,382.09 L263.30,384.07 L261.18,384.76 L259.06,384.07 L257.01,382.09 L255.08,379.05 L253.30,375.31 L251.67,371.32 L250.16,367.53 L248.69,364.39 L247.18,362.25 L245.55,361.33 L243.72,361.70 L241.62,363.27 L239.26,365.81 L236.64,368.94 L233.86,372.23 L231.01,375.24 L228.24,377.53 L225.68,378.78 L223.45,378.78 L221.65,377.47 L220.31,374.96 L219.41,371.47 L218.88,367.36 L218.56,363.06 L218.29,358.99 L217.86,355.55 L217.09,353.05 L215.83,351.67 L213.97,351.46 L211.49,352.31 L208.46,353.98 L205.00,356.15 L201.34,358.43 L197.70,360.41 L194.35,361.73 L191.53,362.13 L189.41,361.44 L188.10,359.64 L187.61,356.83 L187.83,353.24 L188.59,349.17 L189.62,344.98 L190.62,341.02 L191.28,337.62 L191.32,335.00 L190.54,333.30 L188.84,332.52 L186.22,332.56 L182.82,333.22 L178.86,334.22 L174.67,335.25 L170.60,336.01 L167.01,336.23 L164.20,335.74 L162.40,334.43 L161.71,332.31 L162.11,329.49 L163.43,326.14 L165.41,322.50 L167.69,318.84 L169.86,315.38 L171.53,312.35 L172.38,309.87 L172.17,308.01 L170.79,306.75 L168.29,305.98 L164.85,305.55 L160.78,305.28 L156.48,304.96 L152.37,304.43 L148.88,303.53 L146.37,302.19 L145.06,300.39 L145.06,298.16 L146.31,295.60 L148.60,292.83 L151.61,289.98 L154.90,287.20 L158.03,284.58 L160.57,282.22 L162.14,280.12 L162.51,278.29 L161.59,276.66 L159.45,275.15 L156.31,273.68 L152.52,272.17 L148.53,270.54 L144.79,268.76 L141.75,266.83 L139.77,264.78 L139.08,262.66 L139.77,260.54 L141.75,258.49 L144.79,256.56 L148.53,254.78 L152.52,253.15 L156.31,251.64 L159.45,250.17 L161.59,248.66 L162.51,247.03 L162.14,245.20 L160.57,243.10 L158.03,240.74 L154.90,238.12 L151.61,235.34 L148.60,232.49 L146.31,229.72 L145.06,227.16 L145.06,224.93 L146.37,223.13 L148.88,221.79 L152.37,220.89 L156.48,220.36 L160.78,220.04 L164.85,219.77 L168.29,219.34 L170.79,218.57 L172.17,217.31 L172.38,215.45 L171.53,212.97 L169.86,209.94 L167.69,206.48 L165.41,202.82 L163.43,199.18 L162.11,195.83 L161.71,193.01 L162.40,190.89 L164.20,189.58 L167.01,189.09 L170.60,189.31 L174.67,190.07 L178.86,191.10 L182.82,192.10 L186.22,192.76 L188.84,192.80 L190.54,192.02 L191.32,190.32 L191.28,187.70 L190.62,184.30 L189.62,180.34 L188.59,176.15 L187.83,172.08 L187.61,168.49 L188.10,165.68 L189.41,163.88 L191.53,163.19 L194.35,163.59 L197.70,164.91 L201.34,166.89 L205.00,169.17 L208.45,171.34 L211.49,173.01 L213.97,173.86 L215.83,173.65 L217.09,172.27 L217.86,169.77 L218.29,166.33 L218.56,162.26 L218.88,157.96 L219.41,153.85 L220.31,150.36 L221.65,147.85 L223.45,146.54 L225.68,146.54 L228.24,147.79 L231.01,150.08 L233.86,153.09 L236.64,156.38 L239.26,159.51 L241.62,162.05 L243.72,163.62 L245.55,163.99 L247.18,163.07 L248.69,160.93 L250.16,157.79 L251.67,154.00 L253.30,150.01 L255.08,146.27 L257.01,143.23 L259.06,141.25 L261.18,140.56 L263.30,141.25 L265.35,143.23 L267.28,146.27 L269.06,150.01 L270.69,154.00 L272.20,157.79 L273.67,160.93 L275.18,163.07 L276.81,163.99 L278.64,163.62 L280.74,162.05 L283.10,159.51 L285.72,156.38 L288.50,153.09 L291.35,150.08 L294.12,147.79 L296.68,146.54 L298.91,146.54 L300.71,147.85 L302.05,150.36 L302.95,153.85 L303.48,157.96 L303.80,162.26 L304.07,166.33 L304.50,169.77 L305.27,172.27 L306.53,173.65 L308.39,173.86 L310.87,173.01 L313.91,171.34 L317.36,169.17 L321.02,166.89 L324.66,164.91 L328.01,163.59 L330.83,163.19 L332.95,163.88 L334.26,165.68 L334.75,168.49 L334.53,172.08 L333.77,176.15 L332.74,180.34 L331.74,184.30 L331.08,187.70 L331.04,190.32 L331.82,192.02 L333.52,192.80 L336.14,192.76 L339.54,192.10 L343.50,191.10 L347.69,190.07 L351.76,189.31 L355.35,189.09 L358.16,189.58 L359.96,190.89 L360.65,193.01 L360.25,195.83 L358.93,199.18 L356.95,202.82 L354.67,206.48 L352.50,209.93 L350.83,212.97 L349.98,215.45 L350.19,217.31 L351.57,218.57 L354.07,219.34 L357.51,219.77 L361.58,220.04 L365.88,220.36 L369.99,220.89 L373.48,221.79 L375.99,223.13 L377.30,224.93 L377.30,227.16 L376.05,229.72 L373.76,232.49 L370.75,235.34 L367.46,238.12 L364.33,240.74 L361.79,243.10 L360.22,245.20 L359.85,247.03 L360.77,248.66 L362.91,250.17 L366.05,251.64 L369.84,253.15 L373.83,254.78 L377.57,256.56 L380.61,258.49 L382.59,260.54 Z" fill="#a83838"/>
  <path d="M378.10,256.00 L377.41,258.12 L375.43,260.17 L372.39,262.10 L368.65,263.88 L364.66,265.51 L360.87,267.02 L357.73,268.49 L355.59,270.00 L354.67,271.63 L355.04,273.46 L356.61,275.56 L359.15,277.92 L362.28,280.54 L365.57,283.32 L368.58,286.17 L370.87,288.94 L372.12,291.50 L372.12,293.73 L370.81,295.53 L368.30,296.87 L364.81,297.77 L360.70,298.30 L356.40,298.62 L352.33,298.89 L348.89,299.32 L346.39,300.09 L345.01,301.35 L344.80,303.21 L345.65,305.69 L347.32,308.72 L349.49,312.18 L351.77,315.84 L353.75,319.48 L355.07,322.83 L355.47,325.65 L354.78,327.77 L352.98,329.08 L350.17,329.57 L346.58,329.35 L342.51,328.59 L338.32,327.56 L334.36,326.56 L330.96,325.90 L328.34,325.86 L326.64,326.64 L325.86,328.34 L325.90,330.96 L326.56,334.36 L327.56,338.32 L328.59,342.51 L329.35,346.58 L329.57,350.17 L329.08,352.98 L327.77,354.78 L325.65,355.47 L322.83,355.07 L319.48,353.75 L315.84,351.77 L312.18,349.49 L308.73,347.32 L305.69,345.65 L303.21,344.80 L301.35,345.01 L300.09,346.39 L299.32,348.89 L298.89,352.33 L298.62,356.40 L298.30,360.70 L297.77,364.81 L296.87,368.30 L295.53,370.81 L293.73,372.12 L291.50,372.12 L288.94,370.87 L286.17,368.58 L283.32,365.57 L280.54,362.28 L277.92,359.15 L275.56,356.61 L273.46,355.04 L271.63,354.67 L270.00,355.59 L268.49,357.73 L267.02,360.87 L265.51,364.66 L263.88,368.65 L262.10,372.39 L260.17,375.43 L258.12,377.41 L256.00,378.10 L253.88,377.41 L251.83,375.43 L249.90,372.39 L248.12,368.65 L246.49,364.66 L244.98,360.87 L243.51,357.73 L242.00,355.59 L240.37,354.67 L238.54,355.04 L236.44,356.61 L234.08,359.15 L231.46,362.28 L228.68,365.57 L225.83,368.58 L223.06,370.87 L220.50,372.12 L218.27,372.12 L216.47,370.81 L215.13,368.30 L214.23,364.81 L213.70,360.70 L213.38,356.40 L213.11,352.33 L212.68,348.89 L211.91,346.39 L210.65,345.01 L208.79,344.80 L206.31,345.65 L203.28,347.32 L199.82,349.49 L196.16,351.77 L192.52,353.75 L189.17,355.07 L186.35,355.47 L184.23,354.78 L182.92,352.98 L182.43,350.17 L182.65,346.58 L183.41,342.51 L184.44,338.32 L185.44,334.36 L186.10,330.96 L186.14,328.34 L185.36,326.64 L183.66,325.86 L181.04,325.90 L177.64,326.56 L173.68,327.56 L169.49,328.59 L165.42,329.35 L161.83,329.57 L159.02,329.08 L157.22,327.77 L156.53,325.65 L156.93,322.83 L158.25,319.48 L160.23,315.84 L162.51,312.18 L164.68,308.72 L166.35,305.69 L167.20,303.21 L166.99,301.35 L165.61,300.09 L163.11,299.32 L159.67,298.89 L155.60,298.62 L151.30,298.30 L147.19,297.77 L143.70,296.87 L141.19,295.53 L139.88,293.73 L139.88,291.50 L141.13,288.94 L143.42,286.17 L146.43,283.32 L149.72,280.54 L152.85,277.92 L155.39,275.56 L156.96,273.46 L157.33,271.63 L156.41,270.00 L154.27,268.49 L151.13,267.02 L147.34,265.51 L143.35,263.88 L139.61,262.10 L136.57,260.17 L134.59,258.12 L133.90,256.00 L134.59,253.88 L136.57,251.83 L139.61,249.90 L143.35,248.12 L147.34,246.49 L151.13,244.98 L154.27,243.51 L156.41,242.00 L157.33,240.37 L156.96,238.54 L155.39,236.44 L152.85,234.08 L149.72,231.46 L146.43,228.68 L143.42,225.83 L141.13,223.06 L139.88,220.50 L139.88,218.27 L141.19,216.47 L143.70,215.13 L147.19,214.23 L151.30,213.70 L155.60,213.38 L159.67,213.11 L163.11,212.68 L165.61,211.91 L166.99,210.65 L167.20,208.79 L166.35,206.31 L164.68,203.27 L162.51,199.82 L160.23,196.16 L158.25,192.52 L156.93,189.17 L156.53,186.35 L157.22,184.23 L159.02,182.92 L161.83,182.43 L165.42,182.65 L169.49,183.41 L173.68,184.44 L177.64,185.44 L181.04,186.10 L183.66,186.14 L185.36,185.36 L186.14,183.66 L186.10,181.04 L185.44,177.64 L184.44,173.68 L183.41,169.49 L182.65,165.42 L182.43,161.83 L182.92,159.02 L184.23,157.22 L186.35,156.53 L189.17,156.93 L192.52,158.25 L196.16,160.23 L199.82,162.51 L203.27,164.68 L206.31,166.35 L208.79,167.20 L210.65,166.99 L211.91,165.61 L212.68,163.11 L213.11,159.67 L213.38,155.60 L213.70,151.30 L214.23,147.19 L215.13,143.70 L216.47,141.19 L218.27,139.88 L220.50,139.88 L223.06,141.13 L225.83,143.42 L228.68,146.43 L231.46,149.72 L234.08,152.85 L236.44,155.39 L238.54,156.96 L240.37,157.33 L242.00,156.41 L243.51,154.27 L244.98,151.13 L246.49,147.34 L248.12,143.35 L249.90,139.61 L251.83,136.57 L253.88,134.59 L256.00,133.90 L258.12,134.59 L260.17,136.57 L262.10,139.61 L263.88,143.35 L265.51,147.34 L267.02,151.13 L268.49,154.27 L270.00,156.41 L271.63,157.33 L273.46,156.96 L275.56,155.39 L277.92,152.85 L280.54,149.72 L283.32,146.43 L286.17,143.42 L288.94,141.13 L291.50,139.88 L293.73,139.88 L295.53,141.19 L296.87,143.70 L297.77,147.19 L298.30,151.30 L298.62,155.60 L298.89,159.67 L299.32,163.11 L300.09,165.61 L301.35,166.99 L303.21,167.20 L305.69,166.35 L308.73,164.68 L312.18,162.51 L315.84,160.23 L319.48,158.25 L322.83,156.93 L325.65,156.53 L327.77,157.22 L329.08,159.02 L329.57,161.83 L329.35,165.42 L328.59,169.49 L327.56,173.68 L326.56,177.64 L325.90,181.04 L325.86,183.66 L326.64,185.36 L328.34,186.14 L330.96,186.10 L334.36,185.44 L338.32,184.44 L342.51,183.41 L346.58,182.65 L350.17,182.43 L352.98,182.92 L354.78,184.23 L355.47,186.35 L355.07,189.17 L353.75,192.52 L351.77,196.16 L349.49,199.82 L347.32,203.27 L345.65,206.31 L344.80,208.79 L345.01,210.65 L346.39,211.91 L348.89,212.68 L352.33,213.11 L356.40,213.38 L360.70,213.70 L364.81,214.23 L368.30,215.13 L370.81,216.47 L372.12,218.27 L372.12,220.50 L370.87,223.06 L368.58,225.83 L365.57,228.68 L362.28,231.46 L359.15,234.08 L356.61,236.44 L355.04,238.54 L354.67,240.37 L355.59,242.00 L357.73,243.51 L360.87,244.98 L364.66,246.49 L368.65,248.12 L372.39,249.90 L375.43,251.83 L377.41,253.88 Z" fill="#e15555"/>
  <circle cx="256" cy="256" r="82.88" fill="none" stroke="#ddd6c4" stroke-width="7.4"/>
  <g fill="#ddd6c4"><circle cx="256" cy="246.44" r="26.64"/><path d="M246.38,262.44 L240.46,321.12 A15.54,9.6348 0 0 0 271.54,321.12 L265.62,262.44 Z"/></g>
</svg>
